<svg width="10" height="14" viewBox="0 0 10 14" fill="none" xmlns="http://www.w3.org/2000/svg">
<path d="M9.18478 1.95026H7.09947C7.4247 2.38649 7.63514 2.89834 7.7308 3.4858H9.66306L9.18478 5.07369H7.74037C7.60007 6.03341 7.17918 6.76919 6.4777 7.28104C5.77623 7.78707 4.78459 8.08953 3.5028 8.18841L7.96038 12.9434V13.0568H5.21504L0.346142 7.88304L0.336576 6.54817H2.75668C3.47091 6.54817 4.03528 6.41439 4.44979 6.14683C4.87068 5.87346 5.15127 5.51574 5.29157 5.07369H0.145264L0.63311 3.4858H5.25331C4.94083 2.58425 4.09587 2.13347 2.71842 2.13347H0.145264L0.661807 0.353638H9.67262L9.18478 1.95026Z" fill="#00BA88"/>
</svg>
