<svg width="14" height="14" viewBox="0 0 14 14" fill="none" xmlns="http://www.w3.org/2000/svg">
<path d="M12.913 8.16731H3.71014L7.30435 11.9961C7.72464 12.463 7.72464 13.1946 7.30435 13.6615C6.88406 14.1128 6.18841 14.1128 5.76812 13.6615L0.304348 7.8249C-0.101449 7.38911 -0.101449 6.61089 0.304348 6.1751L5.76812 0.338521C6.18841 -0.11284 6.88406 -0.11284 7.30435 0.338521C7.50725 0.571984 7.62319 0.869261 7.62319 1.16342C7.62319 1.45914 7.50725 1.77043 7.30435 1.98833L3.71014 5.83268H12.913C13.5217 5.83268 14 6.3463 14 7C14 7.63813 13.5217 8.16731 12.913 8.16731Z" fill="#172C51"/>
</svg>
