<svg width="24" height="24" viewBox="0 0 24 24" fill="none" xmlns="http://www.w3.org/2000/svg">
<path d="M11.0504 14.9515L9.20037 16.8015C8.81037 17.1915 8.19037 17.1915 7.79037 16.8115C7.68037 16.7015 7.57037 16.6015 7.46037 16.4915C6.43037 15.4515 5.50037 14.3615 4.67037 13.2215C3.85037 12.0815 3.19037 10.9415 2.71037 9.81146C2.24037 8.67146 2.00037 7.58146 2.00037 6.54146C2.00037 5.86146 2.12037 5.21146 2.36037 4.61146C2.60037 4.00146 2.98037 3.44146 3.51037 2.94146C4.15037 2.31146 4.85037 2.00146 5.59037 2.00146C5.87037 2.00146 6.15037 2.06146 6.40037 2.18146C6.66037 2.30146 6.89037 2.48146 7.07037 2.74146L9.39037 6.01146C9.57037 6.26146 9.70037 6.49146 9.79037 6.71146C9.88037 6.92146 9.93037 7.13146 9.93037 7.32146C9.93037 7.56146 9.86037 7.80146 9.72037 8.03146C9.59037 8.26146 9.40037 8.50146 9.16037 8.74146L8.40036 9.53146C8.29037 9.64146 8.24037 9.77146 8.24037 9.93146C8.24037 10.0115 8.25037 10.0815 8.27037 10.1615C8.30037 10.2415 8.33037 10.3015 8.35037 10.3615C8.53037 10.6915 8.84036 11.1215 9.28036 11.6415C9.73036 12.1615 10.2104 12.6915 10.7304 13.2215C10.8304 13.3215 10.9404 13.4215 11.0404 13.5215C11.4404 13.9115 11.4504 14.5515 11.0504 14.9515Z" fill="#91D18B"/>
<path d="M21.9697 18.3322C21.9697 18.6122 21.9197 18.9022 21.8197 19.1822C21.7897 19.2622 21.7597 19.3422 21.7197 19.4222C21.5497 19.7822 21.3297 20.1222 21.0397 20.4422C20.5497 20.9822 20.0097 21.3722 19.3997 21.6222C19.3897 21.6222 19.3797 21.6322 19.3697 21.6322C18.7797 21.8722 18.1397 22.0022 17.4497 22.0022C16.4297 22.0022 15.3397 21.7622 14.1897 21.2722C13.0397 20.7822 11.8897 20.1222 10.7497 19.2922C10.3597 19.0022 9.96973 18.7122 9.59973 18.4022L12.8697 15.1322C13.1497 15.3422 13.3997 15.5022 13.6097 15.6122C13.6597 15.6322 13.7197 15.6622 13.7897 15.6922C13.8697 15.7222 13.9497 15.7322 14.0397 15.7322C14.2097 15.7322 14.3397 15.6722 14.4497 15.5622L15.2097 14.8122C15.4597 14.5622 15.6997 14.3722 15.9297 14.2522C16.1597 14.1122 16.3897 14.0422 16.6397 14.0422C16.8297 14.0422 17.0297 14.0822 17.2497 14.1722C17.4697 14.2622 17.6997 14.3922 17.9497 14.5622L21.2597 16.9122C21.5197 17.0922 21.6997 17.3022 21.8097 17.5522C21.9097 17.8022 21.9697 18.0522 21.9697 18.3322Z" fill="#91D18B"/>
</svg>
