<svg width="38" height="34" viewBox="0 0 38 34" fill="none" xmlns="http://www.w3.org/2000/svg">
<path fill-rule="evenodd" clip-rule="evenodd" d="M28.9734 6.43316C29.0467 6.56135 29.1751 6.65292 29.3401 6.65292C33.7401 6.65292 37.3334 10.2423 37.3334 14.6374V25.5153C37.3334 29.9104 33.7401 33.4998 29.3401 33.4998H8.66008C4.24175 33.4998 0.666748 29.9104 0.666748 25.5153V14.6374C0.666748 10.2423 4.24175 6.65292 8.66008 6.65292C8.80675 6.65292 8.95341 6.57967 9.00842 6.43316L9.11841 6.21341C9.18161 6.08039 9.24648 5.94376 9.31232 5.80507C9.78134 4.81717 10.3002 3.72423 10.6217 3.08189C11.4651 1.43372 12.8951 0.518069 14.6734 0.499756H23.3084C25.0868 0.518069 26.5351 1.43372 27.3784 3.08189C27.6672 3.65874 28.1071 4.58792 28.5311 5.4835C28.6186 5.66832 28.7054 5.85171 28.7901 6.03028L28.9734 6.43316ZM27.6351 13.4658C27.6351 14.3815 28.3684 15.114 29.2851 15.114C30.2018 15.114 30.9534 14.3815 30.9534 13.4658C30.9534 12.5502 30.2018 11.7994 29.2851 11.7994C28.3684 11.7994 27.6351 12.5502 27.6351 13.4658ZM15.8286 16.3032C16.6902 15.4425 17.8086 14.9846 19.0002 14.9846C20.1919 14.9846 21.3102 15.4425 22.1536 16.2849C22.9969 17.1273 23.4552 18.2443 23.4552 19.4347C23.4369 21.8886 21.4569 23.8847 19.0002 23.8847C17.8086 23.8847 16.6902 23.4269 15.8469 22.5845C15.0036 21.7421 14.5452 20.625 14.5452 19.4347V19.4164C14.5269 18.2627 14.9852 17.1456 15.8286 16.3032ZM24.0785 24.526C22.7768 25.8262 20.9801 26.632 19.0001 26.632C17.0751 26.632 15.2785 25.8811 13.9035 24.526C12.5468 23.1525 11.7951 21.3578 11.7951 19.435C11.7768 17.5304 12.5285 15.7357 13.8851 14.3623C15.2601 12.9888 17.0751 12.238 19.0001 12.238C20.9251 12.238 22.7401 12.9888 24.0968 14.344C25.4535 15.7174 26.2051 17.5304 26.2051 19.435C26.1868 21.4311 25.3801 23.2258 24.0785 24.526Z" fill="#324E7E"/>
</svg>
