<svg width="21" height="16" viewBox="0 0 21 16" fill="none" xmlns="http://www.w3.org/2000/svg">
<path fill-rule="evenodd" clip-rule="evenodd" d="M1.06068 6.93957C1.64646 6.35378 2.59621 6.35378 3.182 6.93957L9.06068 12.8182C9.64646 13.404 9.64646 14.3538 9.06068 14.9396C8.47489 15.5254 7.52514 15.5254 6.93936 14.9396L1.06068 9.06089C0.474891 8.4751 0.474891 7.52535 1.06068 6.93957Z" fill="white"/>
<path fill-rule="evenodd" clip-rule="evenodd" d="M6.93932 14.9396C6.35354 14.3538 6.35354 13.404 6.93932 12.8182L17.818 1.93957C18.4038 1.35378 19.3535 1.35378 19.9393 1.93957C20.5251 2.52535 20.5251 3.4751 19.9393 4.06089L9.06064 14.9396C8.47486 15.5254 7.52511 15.5254 6.93932 14.9396Z" fill="white"/>
</svg>
