<svg width="10" height="10" viewBox="0 0 10 10" fill="none" xmlns="http://www.w3.org/2000/svg">
<path d="M4.99994 -0.000244141C2.24494 -0.000244141 -6.10352e-05 2.24476 -6.10352e-05 4.99976C-6.10352e-05 7.75476 2.24494 9.99976 4.99994 9.99976C7.75494 9.99976 9.99994 7.75476 9.99994 4.99976C9.99994 2.24476 7.75494 -0.000244141 4.99994 -0.000244141ZM4.62494 2.99976C4.62494 2.79476 4.79494 2.62476 4.99994 2.62476C5.20494 2.62476 5.37494 2.79476 5.37494 2.99976V5.49976C5.37494 5.70476 5.20494 5.87476 4.99994 5.87476C4.79494 5.87476 4.62494 5.70476 4.62494 5.49976V2.99976ZM5.45994 7.18976C5.43494 7.25476 5.39994 7.30476 5.35494 7.35476C5.30494 7.39976 5.24994 7.43476 5.18994 7.45976C5.12994 7.48476 5.06494 7.49976 4.99994 7.49976C4.93494 7.49976 4.86994 7.48476 4.80994 7.45976C4.74994 7.43476 4.69494 7.39976 4.64494 7.35476C4.59994 7.30476 4.56494 7.25476 4.53994 7.18976C4.51494 7.12976 4.49994 7.06476 4.49994 6.99976C4.49994 6.93476 4.51494 6.86976 4.53994 6.80976C4.56494 6.74976 4.59994 6.69476 4.64494 6.64476C4.69494 6.59976 4.74994 6.56476 4.80994 6.53976C4.92994 6.48976 5.06994 6.48976 5.18994 6.53976C5.24994 6.56476 5.30494 6.59976 5.35494 6.64476C5.39994 6.69476 5.43494 6.74976 5.45994 6.80976C5.48494 6.86976 5.49994 6.93476 5.49994 6.99976C5.49994 7.06476 5.48494 7.12976 5.45994 7.18976Z" fill="#324E7E"/>
</svg>
