<svg width="93" height="28" viewBox="0 0 93 28" fill="none" xmlns="http://www.w3.org/2000/svg">
<path d="M24.0517 8.01659C26.3854 8.01659 28.2366 8.72341 29.6054 10.1371C30.9966 11.5507 31.6922 13.5141 31.6922 16.0273V27H25.9702V16.8015C25.9702 15.5898 25.6449 14.6585 24.9941 14.0078C24.3659 13.3346 23.4907 12.998 22.3688 12.998C21.2468 12.998 20.3605 13.3346 19.7098 14.0078C19.0815 14.6585 18.7673 15.5898 18.7673 16.8015V27H13.0454V16.8015C13.0454 15.5898 12.72 14.6585 12.0693 14.0078C11.441 13.3346 10.5659 12.998 9.4439 12.998C8.32195 12.998 7.43561 13.3346 6.78488 14.0078C6.15659 14.6585 5.84244 15.5898 5.84244 16.8015V27H0.0868293V8.21854H5.84244V10.5746C6.42585 9.78927 7.18878 9.1722 8.13122 8.72341C9.07366 8.2522 10.1395 8.01659 11.3288 8.01659C12.7424 8.01659 13.999 8.31951 15.0985 8.92537C16.2205 9.53122 17.0956 10.3951 17.7239 11.5171C18.3746 10.4849 19.261 9.64341 20.3829 8.99268C21.5049 8.34195 22.7278 8.01659 24.0517 8.01659ZM56.112 22.1195V27H53.1837C51.0969 27 49.47 26.4951 48.3032 25.4854C47.1364 24.4532 46.553 22.7815 46.553 20.4702V12.998H44.2642V8.21854H46.553V3.64098H52.3086V8.21854H56.0783V12.998H52.3086V20.5376C52.3086 21.0985 52.4432 21.5024 52.7125 21.7493C52.9817 21.9961 53.4305 22.1195 54.0588 22.1195H56.112ZM65.0736 11.3488C65.7467 10.3166 66.5882 9.50878 67.598 8.92537C68.6077 8.31951 69.7297 8.01659 70.9638 8.01659V14.1088H69.3819C67.9458 14.1088 66.8687 14.4229 66.1506 15.0512C65.4326 15.6571 65.0736 16.7341 65.0736 18.2824V27H59.318V8.21854H65.0736V11.3488ZM72.5705 17.5756C72.5705 15.6459 72.9295 13.9517 73.6476 12.4932C74.388 11.0346 75.3866 9.91268 76.6432 9.12732C77.8998 8.34195 79.3022 7.94927 80.8505 7.94927C82.1744 7.94927 83.33 8.21854 84.3173 8.75707C85.3271 9.29561 86.1012 10.0024 86.6398 10.8776V8.21854H92.3954V27H86.6398V24.341C86.0788 25.2161 85.2934 25.9229 84.2837 26.4615C83.2963 27 82.1407 27.2693 80.8168 27.2693C79.291 27.2693 77.8998 26.8766 76.6432 26.0912C75.3866 25.2834 74.388 24.1502 73.6476 22.6917C72.9295 21.2107 72.5705 19.5054 72.5705 17.5756ZM86.6398 17.6093C86.6398 16.1732 86.2358 15.04 85.428 14.2098C84.6427 13.3795 83.6778 12.9644 82.5334 12.9644C81.389 12.9644 80.4129 13.3795 79.6051 14.2098C78.8198 15.0176 78.4271 16.1395 78.4271 17.5756C78.4271 19.0117 78.8198 20.1561 79.6051 21.0088C80.4129 21.839 81.389 22.2541 82.5334 22.2541C83.6778 22.2541 84.6427 21.839 85.428 21.0088C86.2358 20.1785 86.6398 19.0454 86.6398 17.6093Z" fill="#324E7E"/>
<path d="M38.6122 6.26634C37.6024 6.26634 36.7722 5.97463 36.1214 5.39122C35.4932 4.78537 35.179 4.04488 35.179 3.16976C35.179 2.2722 35.4932 1.53171 36.1214 0.948292C36.7722 0.342438 37.6024 0.0395115 38.6122 0.0395115C39.5995 0.0395115 40.4073 0.342438 41.0356 0.948292C41.6863 1.53171 42.0117 2.2722 42.0117 3.16976C42.0117 4.04488 41.6863 4.78537 41.0356 5.39122C40.4073 5.97463 39.5995 6.26634 38.6122 6.26634ZM41.4732 8.21854V27H35.7175V8.21854H41.4732Z" fill="#91D18B"/>
</svg>
