<svg width="24" height="24" viewBox="0 0 24 24" fill="none" xmlns="http://www.w3.org/2000/svg">
<path d="M16.24 4H7.76C5 4 4 5 4 7.81V20.19C4 23 5 24 7.76 24H16.23C19 24 20 23 20 20.19V7.81C20 5 19 4 16.24 4ZM12 21.3C11.04 21.3 10.25 20.51 10.25 19.55C10.25 18.59 11.04 17.8 12 17.8C12.96 17.8 13.75 18.59 13.75 19.55C13.75 20.51 12.96 21.3 12 21.3ZM14 8.25H10C9.59 8.25 9.25 7.91 9.25 7.5C9.25 7.09 9.59 6.75 10 6.75H14C14.41 6.75 14.75 7.09 14.75 7.5C14.75 7.91 14.41 8.25 14 8.25Z" fill="#324E7E"/>
</svg>
