<svg width="132" height="36" viewBox="0 0 132 36" fill="none" xmlns="http://www.w3.org/2000/svg">
<circle cx="18" cy="18" r="18" fill="#00BA88"/>
<path d="M24.4625 12.0143H21.3106C21.8022 12.6736 22.1203 13.4472 22.2649 14.3351H25.1853L24.4625 16.7351H22.2793C22.0673 18.1857 21.4311 19.2978 20.3709 20.0714C19.3106 20.8362 17.8119 21.2934 15.8745 21.4428L22.6119 28.6296V28.8011H18.4625L11.1034 20.9813L11.089 18.9637H14.7468C15.8263 18.9637 16.6793 18.7615 17.3058 18.3571C17.942 17.9439 18.3661 17.4033 18.5781 16.7351H10.7998L11.5372 14.3351H18.5203C18.048 12.9725 16.7709 12.2912 14.689 12.2912H10.7998L11.5805 9.60107H25.1998L24.4625 12.0143Z" fill="white"/>
<circle cx="66" cy="18" r="18" fill="#00BA88"/>
<path d="M72.4625 12.0143H69.3106C69.8022 12.6736 70.1203 13.4472 70.2649 14.3351H73.1853L72.4625 16.7351H70.2793C70.0673 18.1857 69.4311 19.2978 68.3709 20.0714C67.3106 20.8362 65.8119 21.2934 63.8745 21.4428L70.6119 28.6296V28.8011H66.4625L59.1034 20.9813L59.089 18.9637H62.7468C63.8263 18.9637 64.6793 18.7615 65.3058 18.3571C65.942 17.9439 66.3661 17.4033 66.5781 16.7351H58.7998L59.5372 14.3351H66.5203C66.048 12.9725 64.7709 12.2912 62.689 12.2912H58.7998L59.5805 9.60107H73.1998L72.4625 12.0143Z" fill="white"/>
<circle cx="114" cy="18" r="18" fill="#00BA88"/>
<path d="M120.462 12.0143H117.31C117.802 12.6736 118.12 13.4472 118.264 14.3351H121.185L120.462 16.7351H118.279C118.067 18.1857 117.431 19.2978 116.37 20.0714C115.31 20.8362 113.811 21.2934 111.874 21.4428L118.611 28.6296V28.8011H114.462L107.103 20.9813L107.088 18.9637H110.746C111.826 18.9637 112.679 18.7615 113.305 18.3571C113.941 17.9439 114.366 17.4033 114.578 16.7351H106.799L107.537 14.3351H114.52C114.048 12.9725 112.77 12.2912 110.688 12.2912H106.799L107.58 9.60107H121.199L120.462 12.0143Z" fill="white"/>
</svg>
