<svg width="20" height="20" viewBox="0 0 20 20" fill="none" xmlns="http://www.w3.org/2000/svg">
<path d="M12.5363 4.83878L13.63 7.0261C13.7773 7.3286 14.1729 7.61559 14.5064 7.67764L16.4843 8.00341C17.7486 8.21284 18.0434 9.1281 17.1359 10.0434L15.5924 11.5869C15.3364 11.8429 15.189 12.347 15.2743 12.7116L15.7165 14.6197C16.0655 16.1244 15.2588 16.7139 13.9325 15.9228L12.0787 14.8213C11.7451 14.6197 11.1867 14.6197 10.8532 14.8213L8.99936 15.9228C7.67301 16.7062 6.86634 16.1244 7.21538 14.6197L7.6575 12.7116C7.7273 12.3393 7.57993 11.8351 7.32397 11.5791L5.78043 10.0356C4.87293 9.1281 5.16767 8.21284 6.43198 7.99566L8.40987 7.66989C8.7434 7.61559 9.13898 7.32085 9.28635 7.01834L10.38 4.83102C10.9773 3.65204 11.9391 3.65204 12.5363 4.83878Z" fill="#324E7E"/>
<path d="M6.80446 5.25722H2.15058C1.83257 5.25722 1.56885 4.9935 1.56885 4.67548C1.56885 4.35747 1.83257 4.09375 2.15058 4.09375H6.80446C7.12247 4.09375 7.38619 4.35747 7.38619 4.67548C7.38619 4.9935 7.12247 5.25722 6.80446 5.25722Z" fill="#324E7E"/>
<path d="M4.47752 16.1137H2.15058C1.83257 16.1137 1.56885 15.8499 1.56885 15.5319C1.56885 15.2139 1.83257 14.9502 2.15058 14.9502H4.47752C4.79553 14.9502 5.05925 15.2139 5.05925 15.5319C5.05925 15.8499 4.79553 16.1137 4.47752 16.1137Z" fill="#324E7E"/>
<path d="M2.92623 10.6903H2.15058C1.83257 10.6903 1.56885 10.4266 1.56885 10.1086C1.56885 9.79057 1.83257 9.52686 2.15058 9.52686H2.92623C3.24424 9.52686 3.50796 9.79057 3.50796 10.1086C3.50796 10.4266 3.24424 10.6903 2.92623 10.6903Z" fill="#324E7E"/>
</svg>
